<svg xmlns="http://www.w3.org/2000/svg" viewBox="0 0 128 128"><defs><style>.cls-1{fill:#563d7c;}.cls-2{fill:#fff;}</style></defs><g id="Layer_2" data-name="Layer 2"><g id="Layer_1-2" data-name="Layer 1"><path class="cls-1" d="M0,111.5A16.5,16.5,0,0,0,16.5,128h95A16.5,16.5,0,0,0,128,111.5v-95A16.5,16.5,0,0,0,111.5,0h-95A16.5,16.5,0,0,0,0,16.5Z"/><path class="cls-2" d="M53.08,56.62V38.49H69a25.19,25.19,0,0,1,4.4.38,11.23,11.23,0,0,1,3.75,1.36,7.21,7.21,0,0,1,2.6,2.71,9,9,0,0,1,1,4.45q0,4.89-2.93,7.06a12.25,12.25,0,0,1-7.49,2.17ZM36,25.25v77.5H73.59a39.51,39.51,0,0,0,10.15-1.3,27.09,27.09,0,0,0,8.79-4,19.78,19.78,0,0,0,6.14-7A21.33,21.33,0,0,0,101,80.28a21.5,21.5,0,0,0-3.53-12.43q-3.53-5.14-10.69-7.21a19.41,19.41,0,0,0,7.87-6.41,17,17,0,0,0,2.66-9.77,20.7,20.7,0,0,0-1.8-9.12,14.81,14.81,0,0,0-5-5.91,21.85,21.85,0,0,0-7.82-3.2,48.31,48.31,0,0,0-10.09-1Zm17,64.26V68.23H71.64a14.36,14.36,0,0,1,8.9,2.55c2.24,1.7,3.37,4.54,3.37,8.52a10.63,10.63,0,0,1-1,5,8.19,8.19,0,0,1-2.76,3.09,11.84,11.84,0,0,1-4,1.63,23.12,23.12,0,0,1-4.78.49Z"/></g></g></svg>