<svg xmlns="http://www.w3.org/2000/svg" viewBox="0 0 127.55 180.04"><defs><style>.cls-1{fill:#e44d26;}.cls-2{fill:#f16529;}.cls-3{fill:#ebebeb;}.cls-4{fill:#fff;}</style></defs><g id="Layer_2" data-name="Layer 2"><g id="Layer_1-2" data-name="Layer 1"><path class="cls-1" d="M127.55,35.38,115.93,165.56,63.7,180,11.61,165.58,0,35.38Z"/><path class="cls-2" d="M63.78,169,106,157.27,115.92,46H63.78V169Z"/><path class="cls-3" d="M41.19,78H63.78V62h-40l.38,4.28,3.92,44H63.78v-16H42.65L41.19,78Z"/><path class="cls-3" d="M44.79,118.27h-16L31,143.34l32.71,9.08.08,0V135.79l-.07,0L45.92,131l-1.13-12.74Z"/><path d="M11.87,0H20V8h7.43V0h8.11V24.28H27.41V16.15H20v8.13H11.87V0Z"/><path d="M46.19,8.05H39.05V0H61.46V8.05H54.31V24.28H46.19V8.05Z"/><path d="M65,0h8.46l5.21,8.53L83.88,0h8.46V24.28H84.26v-12l-5.58,8.63h-.14L73,12.25v12H65V0Z"/><path d="M96.38,0h8.12V16.25h11.41v8H96.38V0Z"/><path class="cls-4" d="M63.72,110.29H83.39L81.53,131l-17.81,4.8v16.62l32.74-9.08.24-2.69,3.75-42,.39-4.29H63.72v16Z"/><path class="cls-4" d="M63.72,77.93v0h38.57l.32-3.59.73-8.1.38-4.28h-40V77.93Z"/></g></g></svg>