<svg xmlns="http://www.w3.org/2000/svg" viewBox="0 0 128 128"><defs><style>.cls-1{fill:#f7df1e;}</style></defs><g id="Layer_2" data-name="Layer 2"><g id="Layer_1-2" data-name="Layer 1"><path class="cls-1" d="M0,0H128V128H0Z"/><path d="M33.66,107,43.45,101c1.89,3.35,3.61,6.18,7.73,6.18,4,0,6.45-1.54,6.45-7.56V58.76h12V99.83c0,12.46-7.31,18.13-18,18.13-9.62,0-15.21-5-18-11"/><path d="M76.19,105.68,86,100c2.58,4.21,5.93,7.3,11.86,7.3,5,0,8.16-2.49,8.16-5.93,0-4.12-3.26-5.58-8.76-8l-3-1.29C85.56,88.41,79.8,83.77,79.8,74c0-9,6.87-15.89,17.61-15.89,7.65,0,13.15,2.66,17.1,9.62l-9.36,6c-2.07-3.69-4.3-5.15-7.74-5.15s-5.75,2.23-5.75,5.15c0,3.61,2.23,5.07,7.38,7.31l3,1.29c10.23,4.38,16,8.85,16,18.9C118,112,109.53,118,98.1,118c-11.17,0-18.39-5.32-21.91-12.28"/></g></g></svg>