<svg xmlns="http://www.w3.org/2000/svg" viewBox="0 0 122.91 118.39"><defs><style>.cls-1{fill:#2b3990;}</style></defs><g id="Layer_2" data-name="Layer 2"><g id="Layer_1-2" data-name="Layer 1"><path class="cls-1" d="M7.8,27.84c-10.87,15.63-9.52,36-1.21,52.57l.61,1.18.39.75.23.43.44.77.79,1.37.45.74.92,1.44.39.61,1.33,1.92.26.36,1.22,1.62.45.58,1.19,1.38.43.51,1.56,1.79.1.1,1.58,1.68.51.52,1.27,1.18.52.49L23,101.41l.33.28L24.88,103l.59.52,1.32,1,.71.59L29,106.24l.69.48,1.43,1,.63.42L34,109.46l.62.36,1.69.94.93.48,1.21.63.28.13.49.24,1.92.89.4.18,2.23.92.55.21,2.1.79.27.09,2.34.77.57.17,2.37.68c52.59,9.6,67.86-31.6,67.86-31.6C107,102.05,84.26,106.46,62.64,101.56c-.82-.18-1.61-.44-2.41-.68l-.59-.18c-.78-.23-1.55-.49-2.31-.75L57,99.83c-.69-.23-1.36-.5-2-.76l-.57-.22c-.74-.29-1.48-.6-2.21-.92l-.44-.2-1.86-.86-.59-.26c-.49-.24-1-.49-1.44-.74l-1-.5c-.58-.31-1.16-.63-1.73-1l-.58-.33c-.75-.45-1.51-.91-2.25-1.38l-.6-.4-1.6-1.06-.52-.36-1.51-1.1-.67-.5-1.36-1.07-.61-.48-1.7-1.44c-.06-.06-.12-.1-.18-.15-.6-.59-1.2-1.08-1.79-1.62l-.5-.49L30,82.77l-.5-.5c-.54-.55-1.06-1.1-1.58-1.66s-1.13-1.26-1.68-1.9l-.41-.5-1.15-1.42-.41-.59-1.33-1.77C11,58.13,6.71,35.59,16.35,17.08m25.26-2.4c-7.86,11.25-7.44,26.46-1.31,38.43a50,50,0,0,0,3.48,5.8,28.38,28.38,0,0,0,4,5.06l1.77,1.78.46.45,1.8,1.68L52,68l2.1,1.74.48.37,2.2,1.6,1.54,1,1.63,1,.24.14,1.44.8.52.27,1,.52.16.07,2.1,1,.46.19,1.78.7.74.27,1.58.55.72.24a11.52,11.52,0,0,0,2.29.66c40.6,6.73,50-24.53,50-24.53-8.45,12.17-24.82,18-42.28,13.45l-2.3-.66-.69-.23L76,66.57l-.73-.27-1.73-.7-.47-.19-2.12-1-1.07-.59-.61-.31-1.65-1-1.63-1-1.54-1L62.29,59l-.49-.39A48.37,48.37,0,0,1,45.21,34.93c-3-9.7-2.37-20.59,2.86-29.42m21.87-.67a23.64,23.64,0,0,0-1.88,22.83A32,32,0,0,0,86.52,44.85l1,.36.44.14,1.45.42c22.42,4.32,28.44-11.51,30.12-13.84-5.34,7.67-14.22,9.51-25.27,6.84-.9-.23-1.79-.51-2.67-.81a33.2,33.2,0,0,1-3.15-1.31,32.31,32.31,0,0,1-5.54-3.38C73.08,25.8,66.91,11.58,73.39,0"/></g></g></svg>