<svg xmlns="http://www.w3.org/2000/svg" viewBox="0 0 161.06 143.3"><defs><style>.cls-1{fill:#27aae1;}.cls-2{fill:#fff;}</style></defs><g id="Layer_2" data-name="Layer 2"><g id="Layer_1-2" data-name="Layer 1"><path class="cls-1" d="M132.43,46.45q-2.58-.89-5.19-1.64c.29-1.17.56-2.35.8-3.53,3.93-19.06,1.36-34.4-7.4-39.46C112.24-3,98.5,2,84.62,14.11q-2.06,1.79-4,3.68c-.88-.84-1.77-1.66-2.67-2.47C63.39,2.41,48.81-3,40.06,2c-8.39,4.86-10.88,19.29-7.35,37.35q.52,2.68,1.19,5.33c-2.06.59-4,1.21-6,1.88C10.89,52.53,0,61.85,0,71.51c0,10,11.69,20,29.45,26.07,1.44.49,2.89.94,4.36,1.36-.48,1.91-.9,3.82-1.27,5.75-3.37,17.74-.74,31.83,7.64,36.66,8.64,5,23.16-.14,37.29-12.49q1.68-1.47,3.36-3.1c1.41,1.36,2.87,2.69,4.35,4,13.69,11.78,27.21,16.54,35.58,11.7,8.64-5,11.44-20.14,7.8-38.55-.28-1.41-.61-2.84-1-4.31q1.53-.45,3-.93c18.46-6.12,30.47-16,30.47-26.13,0-9.69-11.24-19.08-28.63-25.06Z"/><path class="cls-2" d="M128.42,91.11q-1.32.44-2.7.84a161.33,161.33,0,0,0-8.16-20.4,161.65,161.65,0,0,0,7.84-20.11q2.47.72,4.79,1.51c14.9,5.13,24,12.72,24,18.56,0,6.23-9.81,14.31-25.76,19.6Zm-6.61,13.1c1.61,8.15,1.84,15.51.77,21.26-1,5.17-2.89,8.62-5.27,10-5.08,2.94-15.93-.88-27.64-11q-2-1.74-4-3.7a161.29,161.29,0,0,0,13.5-17.14,161,161,0,0,0,21.82-3.36c.32,1.32.62,2.62.87,3.89ZM54.91,135c-5,1.75-8.91,1.8-11.3.43-5.08-2.93-7.19-14.24-4.31-29.42.34-1.79.74-3.57,1.18-5.34a161.3,161.3,0,0,0,21.7,3.14A168.77,168.77,0,0,0,76,120.85c-1,1-2,1.91-3.07,2.83-6.25,5.46-12.51,9.33-18,11.28ZM31.68,91.07c-7.86-2.69-14.34-6.17-18.79-10-4-3.42-6-6.82-6-9.58,0-5.86,8.74-13.34,23.33-18.43q2.74-.94,5.54-1.74A165.4,165.4,0,0,0,43.6,71.68a169.25,169.25,0,0,0-8,20.63C34.32,91.93,33,91.52,31.68,91.07Zm7.79-53c-3-15.47-1-27.14,4-30.07,5.39-3.12,17.3,1.33,29.86,12.48.8.71,1.61,1.46,2.42,2.23a162.7,162.7,0,0,0-13.72,17A167.91,167.91,0,0,0,40.57,43q-.62-2.48-1.1-5Zm69.47,17.15q-2.35-4.08-4.9-8.05c5.14.65,10.07,1.51,14.69,2.56a146.69,146.69,0,0,1-5.16,13.87q-2.22-4.23-4.63-8.38ZM80.61,27.62a146.28,146.28,0,0,1,9.48,11.44c-6.34-.3-12.7-.3-19,0,3.13-4.12,6.34-8,9.56-11.43ZM52.1,55.26q-2.37,4.11-4.55,8.33c-2-4.75-3.72-9.43-5.12-13.94,4.6-1,9.5-1.87,14.6-2.51Q54.47,51.15,52.1,55.26Zm5.08,41.12A146.34,146.34,0,0,1,42.34,94c1.42-4.59,3.17-9.37,5.22-14.22,1.45,2.81,3,5.59,4.56,8.33S55.43,93.66,57.18,96.38ZM80.8,115.9c-3.26-3.52-6.51-7.41-9.69-11.6,3.08.12,6.23.18,9.42.18s6.53-.07,9.72-.21A145.68,145.68,0,0,1,80.8,115.9Zm32.84-36.38a147.25,147.25,0,0,1,5.41,14.17,142.72,142.72,0,0,1-15,2.56q2.57-4.05,5-8.19t4.67-8.54ZM103,84.62Q99.35,91,95.28,97.09c-4.78.34-9.72.51-14.75.51s-9.89-.15-14.58-.46q-4.17-6.09-7.87-12.48t-6.87-13q3.18-6.62,6.85-13h0q3.66-6.36,7.81-12.44c4.79-.36,9.7-.55,14.66-.55s9.91.19,14.7.56q4.09,6.06,7.76,12.39t6.94,12.92q-3.23,6.65-6.92,13ZM117.2,7.78c5.4,3.11,7.49,15.66,4.1,32.11-.22,1.07-.46,2.14-.72,3.2a164.72,164.72,0,0,0-21.53-3.4,162.82,162.82,0,0,0-13.62-17q1.81-1.75,3.7-3.4C101,9,112.14,4.86,117.2,7.78Z"/><path class="cls-1" d="M80.53,57.13A14.39,14.39,0,1,1,66.15,71.51,14.38,14.38,0,0,1,80.53,57.13"/></g></g></svg>